<?xml version="1.0" encoding="utf-8"?>
<!-- Generator: Adobe Illustrator 24.0.0, SVG Export Plug-In . SVG Version: 6.00 Build 0)  -->
<svg version="1.1" id="Layer_1" xmlns="http://www.w3.org/2000/svg" xmlns:xlink="http://www.w3.org/1999/xlink" x="0px" y="0px"
	 viewBox="0 0 612 792" style="enable-background:new 0 0 612 792;" xml:space="preserve">
<style type="text/css">
	.st0{fill:#FFFFFF;}
</style>
<g>
	<path class="st0" d="M578.33,776.4c-182.04,0-363.91,0-545.83,0c0-253.37,0-506.75,0-760.2c181.91,0,363.87,0,545.83,0
		C578.33,269.54,578.33,522.95,578.33,776.4z M35.21,395.96c0,122.55,0,245.1,0.01,367.65c0,1.43,0.08,2.87,0.27,4.29
		c0.37,2.78,1.61,3.99,4.36,4.03c8.03,0.12,16.06,0.2,24.09,0.2c45.48,0.02,90.96,0.01,136.43,0.01c55.6,0,111.2,0,166.8,0.01
		c55.09,0,110.19,0.02,165.28,0.01c12.12,0,24.24-0.02,36.36-0.1c3.51-0.02,4.96-1.5,5.23-4.91c0.07-0.86,0.1-1.72,0.11-2.58
		c0.07-13.55,0.16-27.11,0.19-40.66c0.05-21.8,0.07-43.6,0.07-65.4c0.01-133.73,0-267.46,0-401.2c0-15.26,0-30.52,0-45.78
		c0-31.91,0.05-63.82-0.01-95.73c-0.06-29.48-0.23-58.97-0.36-88.45c-0.02-5.2-1.47-6.62-6.67-6.62
		c-16.56-0.01-33.13-0.01-49.69-0.01c-61.47,0-122.95,0-184.42,0c-43.89,0-87.78-0.03-131.67-0.03c-51.08,0-102.16,0.02-153.24,0.03
		c-2.72,0-5.45-0.06-8.17,0.03c-3.22,0.11-4.54,1.4-4.84,4.57c-0.11,1.21-0.14,2.43-0.14,3.65
		C35.21,151.29,35.21,273.63,35.21,395.96z"/>
	<path class="st0" d="M147.88,347.97c1.88-2.47,3.71-4.98,5.64-7.4c13.05-16.33,29.73-27.81,48.64-36.31
		c8.44-3.79,16.98-7.27,25.97-9.64c6.69-1.76,13.22-1.43,19.7,0.66c10.44,3.37,20.83,6.89,31.26,10.27c3.06,0.99,6.19,1.8,9.31,2.6
		c2.57,0.67,5.04,0.26,7.59-0.55c15.08-4.84,30.2-9.56,45.32-14.31c0.66-0.21,1.35-0.29,2.63-0.55c-2.17,2.83-4.02,5.17-5.8,7.56
		c-6.85,9.21-13.5,18.58-18.24,29.09c-1.37,3.03-2.05,6.39-2.9,9.64c-0.28,1.05-0.51,1.66-1.75,1.61
		c-16.39-0.64-28.08,11.68-32.64,24.44c-4.17,11.66-4.12,23.63-2.42,35.69c1.39,9.84,4.39,19.24,7.38,28.69
		c2.67,8.44,4.32,17.21,6.31,25.86c0.15,0.64-0.4,1.77-0.97,2.2c-6.09,4.55-13.15,7.12-20.44,8.68c-9.3,1.99-18.75,3.3-28.14,4.88
		c-0.55,0.09-1.13,0.01-2.06,0.01c-0.35-3.53-0.83-7.05-1.02-10.59c-0.64-11.81-0.79-23.66-1.85-35.43
		c-1.17-13.06-2.81-26.14-7.39-38.55c-5-13.56-12.74-25.17-25.15-33.14c-4.09-2.63-8.53-4.32-13.37-5.1
		c-1.79-0.29-3.49-1.2-5.22-1.86c-12.79-4.88-25.41-4.17-37.9,1.08c-0.7,0.29-1.39,0.59-2.08,0.88
		C148.14,348.25,148.01,348.11,147.88,347.97z"/>
	<path class="st0" d="M372.84,415.9c-0.14-3.1-0.32-6.15-0.4-9.2c-0.38-13.19-0.86-26.37-1.06-39.56
		c-0.17-11.29,1.22-22.44,3.3-33.55c2.59-13.79,3.22-27.76,3.06-41.77c-0.02-2.05,0.43-2.47,2.56-2.63
		c4.1-0.31,8.46-0.57,12.16-2.16c7.88-3.37,15.48-2.84,23.27-0.27c9.53,3.15,17.34,9.07,24.85,15.46
		c7.67,6.53,12.28,15.01,15.52,24.37c4.56,13.19,7.59,26.78,9.76,40.51c2.86,18.05,5.07,36.2,7.55,54.31
		c0.1,0.76,0.12,1.54,0.21,2.79c-2.7-0.46-5.13-0.81-7.54-1.31c-7.27-1.51-14.33-3.62-20.66-7.62c-0.82-0.52-1.54-1.47-1.92-2.38
		c-0.86-2.04-1.5-4.18-2.18-6.3c-0.17-0.53-0.39-1.16-0.25-1.65c1.99-6.78,1.14-13.57-0.34-20.23c-1.82-8.17-4.11-16.23-6.32-24.31
		c-0.43-1.56-1.33-3.02-2.21-4.4c-1.5-2.36-3.3-3.07-5.89-1.99c-1.95,0.82-3.87,1.94-5.45,3.34c-5.7,5.05-10.19,11.16-10.11,18.98
		c0.1,10.25,1.28,20.48,5.12,30.17c0.11,0.27,0.31,0.52,0.33,0.79c0.02,0.5-0.06,1.01-0.11,1.52c-0.55-0.17-1.41-0.18-1.61-0.54
		c-3.41-6.22-9.42-6.89-15.52-7.42c-2.02-0.17-4.02-0.44-6.02-0.66c2.79-13.14,1.55-25.6-2.27-37.79
		c-1.57-5.01-1.62-9.51,0.22-14.52c2.86-7.79,5.03-15.84,7.32-23.82c0.54-1.89,0.6-3.97,0.57-5.96c-0.03-1.98-0.6-3.91-2.73-4.73
		c-2.18-0.84-4.17,0.02-5.4,1.64c-2.15,2.82-4.21,5.79-5.75,8.98c-3.91,8.11-3.11,16.5-0.43,24.75c1.3,4.01,1.27,7.64-0.22,11.62
		c-2.35,6.32-4.16,12.88-3.61,19.74c0.58,7.23,3.06,13.8,7.66,19.51c0.37,0.46,0.62,1.48,0.37,1.94
		c-3.49,6.27-8.83,10.63-14.89,14.23C373.59,415.89,373.35,415.85,372.84,415.9z"/>
	<path class="st0" d="M218.02,409.97c-0.94,16.03-5.01,34.33-16.9,50.2c-1.15,1.54-2,1.7-3.65,0.83
		c-12.71-6.72-23.95-15.18-30.94-28.05c-8.44-15.52-9.83-32.17-6.49-49.31c1.65-8.49,4.78-16.39,10.37-23.12
		c4.82-5.79,10.69-9.77,18.53-9.91c1.21-0.02,2.59,0.33,3.61,0.96c8.49,5.32,14.21,13.04,18.4,21.94
		C215.86,384,218.04,395.12,218.02,409.97z"/>
	<path class="st0" d="M403.47,547.67c-2.6,0.46-4.81,1.16-7.03,1.18c-8.59,0.05-17.19,0.14-25.76-0.29
		c-6.27-0.32-6.86-1.38-5.75-7.54c1.11-6.13,0.63-12.08-1.09-18.05c-3.01-10.49-6.24-20.9-11.71-30.41
		c-1.95-3.39-4.47-6.47-6.93-9.53c-0.91-1.13-1.09-1.87-0.49-3.19c4.34-9.43,8.63-18.9,12.86-28.38c0.87-1.96,1.49-4.03,2.14-6.08
		c1.11-3.51,2.05-6.95,4.85-9.8c3.05-3.1,3.62-7.4,3.38-11.66c-0.1-1.77,0.48-2.73,2.37-2.95c0.13,0.34,0.39,0.72,0.39,1.09
		c0.09,11.28,4.08,21.56,7.97,31.91c3.71,9.85,6.87,19.91,10.39,29.84c1.3,3.68,0.52,7.35,0.56,11.05
		c0.11,11.99,0.55,24.01,4.97,35.34c1.91,4.91,4.82,9.43,7.27,14.13C402.31,545.21,402.72,546.12,403.47,547.67z"/>
	<path class="st0" d="M360.04,424.86c0.82,4.33,0.27,8.15-0.67,11.9c-0.21,0.83-1.43,1.52-2.33,2.04c-6.71,3.92-14.07,6.05-21.6,7.6
		c-7.65,1.57-15.35,2.89-23.04,4.26c-0.68,0.12-1.74,0.02-2.14-0.42c-6.37-6.92-12.15-14.18-13.21-24.04
		c-1.16-10.69-0.07-21.18,2.79-31.5c2.29-8.29,5.43-16.2,11.18-22.76c1.77-2.02,3.93-3.78,6.17-5.27c1.35-0.9,3.18-1.41,4.82-1.51
		c4.59-0.26,6.13,1.08,6.91,5.58c0.3,1.76,0.72,3.58,0.57,5.33c-0.6,6.65,2.19,12,7.09,15.81c6.04,4.69,8.41,11.21,10.83,17.88
		c1.12,3.09,2.13,6.23,3.32,9.3c0.51,1.32,1.27,2.57,2.08,3.75C354.53,425.31,356.99,425.87,360.04,424.86z"/>
	<path class="st0" d="M367.78,419.01c-0.94-4.73-1.71-9.24-2.74-13.69c-2.19-9.49-3.79-19.19-6.93-28.37
		c-4.94-14.47-14.19-25.8-28.25-32.59c-2.81-1.36-5.9-2.19-8.93-3.02c-1.37-0.37-1.68-0.86-1.49-2.2
		c0.83-5.66,3.33-10.65,6.12-15.51c6.1-10.67,13.35-20.53,21.01-30.12c1.56-1.95,3.5-2.46,5.69-2.98c6.6-1.58,13.23-2.5,20.03-1.72
		c2.93,0.33,3.08,0.27,2.97,3.33c-0.33,9.17-0.41,18.36-1.3,27.48c-0.92,9.47-2.83,18.84-4.02,28.29
		c-1.44,11.41-1.24,22.88-0.69,34.35c0.55,11.38,0.74,22.78,1.15,34.17C370.48,418.27,369.15,418.41,367.78,419.01z"/>
	<path class="st0" d="M148.98,437.07c5.45,4.55,10.39,8.91,15.58,12.93c4.29,3.33,8.82,6.37,13.37,9.36
		c4.87,3.19,9.68,6.43,13.41,10.98c0.49,0.6,0.89,1.71,0.69,2.39c-1.94,6.74-3.92,13.47-6.07,20.15c-3.45,10.7-7,21.36-10.61,32.01
		c-1.11,3.27-0.53,6.3,0.99,9.12c1.87,3.46,4.09,6.72,6.16,10.07c0.43,0.7,0.83,1.43,1.5,2.6c-3.25,0.82-6.11,1.95-9.03,2.2
		c-9.01,0.75-17.85-0.83-26.68-2.43c-1.53-0.28-1.56-1.12-1.18-2.33c1.17-3.69,2.37-7.37,3.43-11.09
		c2.52-8.82,3.02-17.92,3.71-26.99c0.69-9,1.18-18.03,2.2-26.99c1.23-10.87-0.36-21.28-3.93-31.49
		C151.35,444.19,150.24,440.8,148.98,437.07z"/>
	<path class="st0" d="M343.34,546.01c-3.59,0.43-6.62,1.1-9.64,1.11c-7.94,0.03-15.9-0.02-23.83-0.43
		c-5.41-0.28-5.73-1.09-4.24-6.31c0.1-0.34,0.16-0.7,0.29-1.03c1.75-4.6,1.76-9.14,0.95-14.08c-2.89-17.6-5.24-35.29-7.8-52.94
		c-0.6-4.11-1.13-8.24-1.84-12.33c-0.26-1.51,0.16-2.31,1.54-2.76c3.2-1.03,6.37-2.18,9.61-3.06c0.77-0.21,2.02,0.15,2.64,0.7
		c9.6,8.7,19.13,17.5,28.72,26.22c1.01,0.92,1,1.63,0.49,2.77c-5.79,13.08-7.84,26.88-7.85,41.07c0,3.46,1.33,6.38,3.33,9.11
		c1.98,2.72,3.88,5.5,5.75,8.31C342.07,543.26,342.49,544.33,343.34,546.01z"/>
	<path class="st0" d="M239.78,474.47c0.46,4.11-0.26,8.28-1.82,12.21c-3.61,9.1-4.39,18.66-4.82,28.27c-0.19,4.29,0,8.6-0.05,12.9
		c-0.03,3.22,1.02,6.02,2.86,8.62c1.45,2.05,2.9,4.11,4.15,6.28c1.42,2.45,1.14,3.51-1.61,4c-5.76,1.03-11.58,1.93-17.42,2.3
		c-4.77,0.3-9.6-0.13-14.39-0.45c-4.64-0.3-4.9-0.83-4.07-5.49c1.12-6.28,2.25-12.56,3.26-18.86c1.93-12.02,0.03-23.71-3.11-35.3
		c-1.54-5.7-3.33-11.27-6.53-16.31c-0.26-0.41-0.45-1.2-0.23-1.53c1.22-1.85,2.51-3.67,3.94-5.36c0.25-0.3,1.33-0.15,1.89,0.09
		c7.46,3.23,15.11,5.91,23.15,7.17C229.76,473.77,234.63,473.99,239.78,474.47z"/>
	<path class="st0" d="M448.71,431.91c3.26,0.53,6.21,1.15,9.19,1.45c4.78,0.47,9.57,0.82,14.37,1.01c1.7,0.07,2.26,0.63,2.27,2.24
		c0.03,6.88,0.16,13.76,0.19,20.64c0.06,11.34,0.17,22.68,2.82,33.79c0.61,2.55,1.57,5.09,2.81,7.4c2.71,5.03,9.26,5.47,12.35,0.63
		c1.59-2.49,2.18-5.68,2.98-8.61c0.55-1.99,0.6-4.11,1.03-6.14c0.63-2.96,2.06-4.34,4.88-4.69c-0.25,0.97-0.45,1.82-0.68,2.67
		c-1.44,5.38,0.25,9.78,4.98,12.74c1.2,0.75,2.11,1.47,1.64,3.06c-2.3,7.88-9.39,17.65-20.12,19.1c-9.38,1.27-16.41-2.86-21.88-10.1
		c-5.98-7.93-9.09-17.12-10.54-26.76c-1.69-11.27-2.67-22.64-4.08-33.95c-0.54-4.33-1.42-8.63-2.13-12.94
		C448.75,433.04,448.75,432.62,448.71,431.91z"/>
	<path class="st0" d="M202.64,463.38c3.35-6.1,7.18-11.73,9.71-17.9c8.37-20.44,11.13-41.46,4.65-63.04
		c-3.44-11.47-9.17-21.6-18.36-29.54c-0.15-0.13-0.25-0.32-0.81-1.03c1.62,0.64,2.72,0.99,3.74,1.49
		c10.75,5.24,18.02,13.9,23.68,24.15c5.5,9.96,7.8,20.84,9.65,31.92c2.46,14.75,3.2,29.62,3.65,44.53
		c0.15,5.08,0.58,10.15,1.06,15.21c0.17,1.79-0.22,2.4-2.08,2.44c-11.05,0.26-21.38-2.79-31.53-6.73c-1-0.39-1.98-0.83-2.96-1.26
		C202.78,463.5,202.55,463.32,202.64,463.38z"/>
	<path class="st0" d="M197.74,464.29c-1.21,1.62-2.39,3.22-3.63,4.88c-0.32-0.18-0.61-0.26-0.77-0.45
		c-3.89-4.61-8.72-8.06-13.77-11.25c-11.25-7.11-21.74-15.19-30.87-24.93c-0.98-1.04-1.82-2.43-2.19-3.8
		c-3.53-13.03-4.54-26.41-5.13-39.8c-0.35-8.01-0.07-16.05-0.07-24.08c0-0.21,0.01-0.43,0.03-0.64c0.45-6.87,2.98-11.92,10.06-14.61
		c10.56-4.02,21.1-5.1,32.02-2.28c0.61,0.16,1.19,0.43,1.73,0.64c-3.04,1.37-6.23,2.4-8.99,4.13c-6.99,4.37-11.64,10.84-14.61,18.39
		c-8.25,20.96-7.79,41.78,1.97,62.14c4.59,9.58,11.97,16.94,20.57,23.02C188.42,458.7,193.03,461.33,197.74,464.29z"/>
	<path class="st0" d="M307.79,451.45c-3.84,1.28-7.4,2.48-11.22,3.76c-0.53-2.69-1.11-5.32-1.56-7.97
		c-1.63-9.52-5.14-18.47-7.99-27.64c-4.09-13.17-6.41-26.62-5.01-40.48c1.02-10.08,4.15-19.33,11.36-26.8
		c5.74-5.95,12.69-9.18,21.05-9.25c1.68-0.01,2.28,0.42,2.42,2.26c0.46,6.14,2.25,11.82,6.8,16.3c0.19,0.18,0.3,0.44,0.49,0.73
		c-11.69,0.59-17.03,8.98-21.39,17.85c-7.3,14.87-10.01,30.7-7.98,47.24c0.91,7.4,4.49,13.52,9.06,19.17
		C305.06,448.18,306.35,449.7,307.79,451.45z"/>
	<path class="st0" d="M438.89,399.91c-0.62-1.26-1.17-2.57-1.88-3.78c-0.65-1.1-1.38-2.19-2.26-3.12c-1.26-1.35-2.79-2.42-4.76-1.58
		c-1.89,0.81-2.62,2.56-2.41,4.41c0.23,2.02,0.93,4,1.5,5.97c0.21,0.72,0.64,1.38,0.77,1.66c-3.71,1.01-7.29,1.99-11.37,3.1
		c-0.77-2.39-2.03-5.15-2.5-8.04c-1.15-7.06-2.37-14.15-2.76-21.28c-0.4-7.31,3.79-12.87,8.85-17.69c1.22-1.16,2.73-2.09,4.23-2.89
		c2.08-1.1,3.26-0.8,4.18,1.34c1.59,3.67,3.29,7.37,4.21,11.24c1.85,7.8,3.29,15.69,4.69,23.59c0.4,2.25,0.06,4.64,0.06,6.96
		C439.26,399.85,439.08,399.88,438.89,399.91z"/>
	<path class="st0" d="M319.13,343.61c4.85,0.62,8.88,2.27,12.64,4.49c13.22,7.79,21.56,19.49,25.49,34.04
		c3.17,11.74,5.16,23.79,7.71,35.69c0.46,2.13-0.13,3.33-2.61,3.45c-0.87-3.17-1.66-6.4-2.66-9.58
		c-4.28-13.58-10.32-26.29-19.37-37.36c-2.73-3.34-6.32-5.97-9.5-8.94c-0.61-0.58-1.15-1.24-1.71-1.87
		c-0.81-0.9-1.49-1.96-2.44-2.68C321.08,356.58,319.8,350.49,319.13,343.61z"/>
	<path class="st0" d="M139.92,356.9c-2.08,11.53-1.64,22.77-0.9,33.95c0.74,11.2,2.07,22.37,3.15,33.53
		c-2.34-3.27-4.37-6.97-4.48-11.25c-0.17-6.93,0.1-13.88,0.13-20.82c0.01-2.64,0.03-5.29-0.2-7.92c-0.16-1.86-1.21-3.28-3.25-3.42
		c-2.01-0.14-2.89,1.43-3.17,2.95c-1.04,5.55-2.37,11.12-2.64,16.72c-0.73,15.24-1.73,30.53-1.16,45.75
		c0.43,11.61,2.98,23.14,4.76,34.68c0.97,6.27-1.21,11.77-3.2,17.36c-0.2-0.01-0.4-0.03-0.6-0.04c-0.13-1.11-0.28-2.21-0.37-3.32
		c-1.5-17.28-3.42-34.54-4.38-51.85c-1.2-21.64-0.72-43.27,3.07-64.72c1.43-8.08,4.85-14.94,11.31-20.14
		C138.52,357.93,139.08,357.53,139.92,356.9z"/>
	<path class="st0" d="M358.14,441.16c-0.74,5.54-12.02,32.06-16.34,38.54c-9.62-8.68-19.18-17.3-28.74-25.93
		c0.09-0.24,0.18-0.48,0.27-0.72C328.39,449.95,343.96,448.76,358.14,441.16z"/>
	<path class="st0" d="M331.46,369c3.97,2.9,6.8,6.39,9.42,10.05c8.76,12.27,14.84,25.77,18.33,40.44c0.23,0.95,0.21,2.61-0.33,2.96
		c-1.52,0.99-3.16,0.37-4.03-1.19c-1.22-2.17-2.3-4.44-3.24-6.75c-2.34-5.76-4.4-11.64-6.94-17.31c-0.89-1.99-2.83-3.53-4.36-5.2
		c-1.83-2-3.89-3.8-5.57-5.91c-1.91-2.4-2.84-5.18-2.73-8.39C332.11,374.94,331.69,372.16,331.46,369z"/>
	<path class="st0" d="M445.13,428.22c-10.96-3.34-19.93-8.3-25.02-18.65c3.71-2.85,7.62-3.84,11.93-2.08
		c0.86,0.35,1.51,1.25,2.23,1.92c1.62,1.51,3.05,3.29,4.86,4.51c2.14,1.44,3.18,3.32,3.73,5.71
		C443.5,422.33,444.27,424.99,445.13,428.22z"/>
	<path class="st0" d="M387.35,359.91c4.05,12.5,5.83,24.99,3.55,38.14C382.78,392.84,380.76,369.53,387.35,359.91z"/>
	<path class="st0" d="M387.57,350.09c-4.27-11.71-3.94-22.3,3.57-32.02c0.97-1.26,2.22-3.13,3.91-2.13
		c0.91,0.54,1.43,2.86,1.13,4.15c-1.58,6.81-3.41,13.57-5.3,20.3C390.02,343.47,388.82,346.46,387.57,350.09z"/>
	<path class="st0" d="M473.9,432.31c-6.39-0.63-12.62-1.52-18.88-1.77c-5.69-0.23-8.52-2.81-8.93-8.39
		c-0.09-1.17-0.56-2.31-0.96-3.89c1.85,0.88,3.29,1.61,4.76,2.26c6.39,2.83,13.12,4.48,19.98,5.65
		C474.36,426.92,474.4,426.95,473.9,432.31z"/>
	<path class="st0" d="M476.42,427.13c10.62,0.39,21.13,1.45,30.73-4.21c0.1,0.27,0.2,0.54,0.31,0.81c-2.81,1.45-5.54,3.11-8.46,4.32
		c-6.57,2.73-13.56,3.46-20.61,3.8c-1.2,0.06-1.74-0.37-1.79-1.53C476.56,429.39,476.5,428.46,476.42,427.13z"/>
	<path class="st0" d="M374.73,286.62c-7.68-1.17-14.97-0.5-22.19,1.31c-0.11-0.25-0.22-0.51-0.33-0.76
		c1.71-1.05,3.33-2.31,5.14-3.11c4.67-2.05,9.52-2.62,14.47-1C373.28,283.53,374.55,284.29,374.73,286.62z"/>
	<path class="st0" d="M438.33,404.46c-3.22,1.57-4.02,1.47-5.28-0.74c-1.1-1.91-1.96-3.97-2.84-6c-0.24-0.56-0.34-1.3-0.2-1.89
		c0.17-0.71,0.52-1.56,1.07-1.92c0.31-0.2,1.48,0.3,1.76,0.78C434.72,397.86,436.47,401.1,438.33,404.46z"/>
	<path class="st0" d="M365.45,423.56c0.12,3.44-0.09,6.8-2.74,9.64c0-2.75-0.14-5.5,0.09-8.23c0.06-0.69,1.28-1.29,1.97-1.93
		C365,423.21,365.22,423.38,365.45,423.56z"/>
	<path class="st0" d="M436.56,408.28c2.45-1.21,2.97-0.71,3.23,3.01C438.65,410.23,437.71,409.35,436.56,408.28z"/>
</g>
<path d="M294.69,459.91c-3.59,1.78-6.82,3.65-10.24,5.03c-12.22,4.93-25.07,7.09-38.09,8.47c-3.73,0.4-3.59,0.39-4.02,4.11
	c-0.34,2.98-0.65,6.07-1.72,8.83c-3.93,10.09-4.71,20.64-5.1,31.27c-0.13,3.58-0.19,7.19,0.19,10.74c0.24,2.19,1.14,4.4,2.17,6.39
	c1.32,2.53,3.2,4.76,4.59,7.26c1.9,3.42,1.01,6.07-2.76,6.95c-5.14,1.2-10.4,2.22-15.65,2.48c-6.28,0.31-12.62-0.03-18.89-0.56
	c-4.99-0.42-5.96-2.14-5.15-7.06c1.24-7.5,2.62-14.97,3.65-22.5c1.21-8.85,0.34-17.64-2.04-26.21c-1.72-6.19-3.94-12.25-5.98-18.36
	c-0.24-0.72-0.73-1.35-1.45-2.65c-0.67,1.86-1.18,3.13-1.58,4.43c-4.45,14.45-8.88,28.91-13.32,43.37
	c-0.08,0.27-0.13,0.58-0.28,0.81c-3.03,4.8-1.5,9.18,1.24,13.44c1.63,2.53,3.33,5.02,4.97,7.54c1.84,2.83,1.35,4.36-1.82,5.6
	c-4.54,1.78-9.27,2.76-14.11,2.25c-7.48-0.79-14.93-1.83-22.38-2.88c-2.66-0.37-3.25-1.39-2.51-4.07c0.88-3.18,1.95-6.3,2.95-9.44
	c3.36-10.57,3.77-21.57,4.64-32.5c0.7-8.86,1.41-17.72,2.21-26.58c0.94-10.46-1.39-20.38-4.84-30.12c-0.38-1.08-0.78-2.16-1.13-3.25
	c-1.94-6.15-4.08-12.07-8.3-17.25c-5.09-6.23-5.48-14-5.23-21.7c0.17-5.37,0.58-10.74,0.76-16.11c0.05-1.32-0.36-2.65-0.56-3.98
	c-0.3-0.02-0.59-0.03-0.89-0.05c-0.37,1.02-0.96,2.02-1.09,3.07c-0.95,8.04-2.24,16.07-2.6,24.13c-0.55,12.17-1.07,24.4-0.41,36.54
	c0.58,10.55,2.54,21.06,4.43,31.5c1.5,8.29-0.94,15.58-4.26,22.8c-0.37,0.8-1.56,1.21-2.37,1.81c-0.57-0.9-1.54-1.75-1.63-2.7
	c-0.89-9.42-1.64-18.86-2.43-28.3c-0.93-11.07-2.29-22.13-2.72-33.22c-0.82-20.74-0.22-41.42,3.44-61.95
	c1.91-10.75,7.96-18.3,16.45-24.45c1.23-0.89,2.33-2.09,3.16-3.36c10.92-16.68,24.87-30.14,42.31-39.87
	c11.61-6.47,23.66-11.94,36.32-16.11c9.65-3.17,19.08-3.22,28.66,0.12c9.75,3.4,19.64,6.39,29.36,9.87
	c6.66,2.38,12.85,2.56,19.77,0.15c15.02-5.22,30.38-9.49,45.57-14.21c0.88-0.27,1.75-0.95,2.38-1.67
	c5.67-6.49,12.88-8.89,21.26-7.82c3.47,0.44,6.8,1.47,7.73,5.68c0.11,0.48,1.13,1.03,1.76,1.08c4.42,0.31,8.8-0.1,12.83-2.02
	c7.31-3.48,14.73-3.12,22.25-1.02c9.89,2.77,18.04,8.56,25.95,14.85c10.08,8.03,15.8,18.73,19.52,30.74
	c4.4,14.21,7.5,28.74,9.71,43.42c2.52,16.73,4.48,33.54,6.64,50.32c0.15,1.19,0.66,1.64,1.77,1.63c5.66-0.04,11.32,0.07,16.97-0.15
	c4.55-0.18,8.54-2.3,12.49-4.38c0.95-0.5,1.89-1.1,2.91-1.36c0.73-0.18,1.91-0.14,2.29,0.3c0.39,0.46,0.34,1.74-0.05,2.3
	c-0.96,1.4-2.07,2.77-3.38,3.83c-6.65,5.38-14.57,7.51-22.86,8.52c-2.49,0.3-5,0.44-7.5,0.57c-1.13,0.06-1.68,0.34-1.64,1.63
	c0.43,14.69,0.6,29.39,1.32,44.07c0.23,4.8,1.78,9.55,2.83,14.3c0.22,1.02,0.79,2,1.36,2.9c2.3,3.64,6.65,3.75,8.57-0.12
	c1.36-2.75,1.71-6,2.52-9.02c0.66-2.48,1.1-5.05,2.05-7.41c0.96-2.38,3.14-3.49,5.67-3.66c3.01-0.2,3.89,1.1,2.78,3.87
	c-1.34,3.34-1.87,6.71,0.52,9.8c0.85,1.09,2.1,1.93,3.31,2.66c1.91,1.16,2.79,2.77,2.19,4.88c-5.5,19.54-25.84,28.6-41.28,15.94
	c-6.28-5.15-9.91-12.17-12.64-19.68c-4.01-11.04-5-22.63-6.29-34.18c-1.01-9.04-2.42-18.04-3.6-27.06c-0.21-1.63-0.95-2.4-2.58-2.89
	c-8.37-2.5-16.06-6.2-21.68-13.22c-0.85-1.06-1.68-2.16-2.38-3.32c-0.97-1.59-1.63-3.25-4.19-2.35c-0.72,0.25-2.44-0.8-2.91-1.68
	c-2.44-4.51-6.61-5.62-11.15-6.18c-3.05-0.38-6.09-0.84-9.15-1.13c-0.53-0.05-1.37,0.42-1.65,0.89c-3.86,6.59-9.62,11.14-16.07,14.9
	c-1.68,0.98-1.37,2.27-1.32,3.67c0.35,9.81,3.14,18.97,6.67,28.08c4.29,11.09,7.95,22.44,11.68,33.74c0.76,2.31,0.95,4.95,0.81,7.4
	c-0.7,11.99,0.12,23.87,3.64,35.33c1.68,5.47,4.98,10.45,7.55,15.65c0.6,1.22,1.31,2.4,1.83,3.65c0.91,2.17,0.45,3.59-1.83,4.17
	c-3.17,0.81-6.46,1.55-9.71,1.59c-7.66,0.11-15.33-0.21-23-0.36c-0.21,0-0.43-0.05-0.64-0.08c-9.14-1.33-8.91-4.18-7.69-10.33
	c1.31-6.59,0.33-12.94-1.61-19.29c-3.27-10.72-6.65-21.38-12.79-30.9c-1.12-1.74-2.47-3.34-3.76-4.97
	c-0.34-0.43-0.83-0.74-1.34-1.19c-0.3,0.36-0.59,0.6-0.71,0.9c-5.41,12.83-7.49,26.26-7.34,40.12c0.03,2.85,1.39,5.05,2.91,7.24
	c2,2.89,4.13,5.69,5.97,8.68c3.04,4.93,2.02,6.92-3.73,7.62c-10.37,1.25-20.74,1.42-31.11,0.09c-6.34-0.81-7.86-2.74-5.79-8.72
	c2.03-5.86,1.73-11.45,0.75-17.47c-2.97-18.26-5.34-36.61-7.96-54.93C295.56,465.3,295.12,462.64,294.69,459.91z M147.88,347.97
	c0.13,0.14,0.26,0.28,0.4,0.42c0.69-0.29,1.39-0.59,2.08-0.88c12.49-5.25,25.12-5.97,37.9-1.08c1.73,0.66,3.43,1.57,5.22,1.86
	c4.83,0.79,9.28,2.47,13.37,5.1c12.42,7.98,20.16,19.58,25.15,33.14c4.57,12.42,6.22,25.49,7.39,38.55
	c1.06,11.77,1.21,23.62,1.85,35.43c0.19,3.54,0.67,7.06,1.02,10.59c0.92,0,1.51,0.08,2.06-0.01c9.39-1.58,18.84-2.89,28.14-4.88
	c7.29-1.56,14.34-4.13,20.44-8.68c0.58-0.43,1.12-1.56,0.97-2.2c-1.99-8.65-3.64-17.42-6.31-25.86c-2.99-9.45-5.99-18.85-7.38-28.69
	c-1.7-12.06-1.75-24.02,2.42-35.69c4.56-12.75,16.25-25.08,32.64-24.44c1.24,0.05,1.47-0.56,1.75-1.61c0.85-3.25,1.53-6.6,2.9-9.64
	c4.74-10.52,11.39-19.88,18.24-29.09c1.78-2.39,3.62-4.73,5.8-7.56c-1.27,0.26-1.97,0.35-2.63,0.55
	c-15.11,4.75-30.23,9.47-45.32,14.31c-2.55,0.82-5.01,1.22-7.59,0.55c-3.12-0.81-6.25-1.61-9.31-2.6
	c-10.43-3.39-20.82-6.91-31.26-10.27c-6.48-2.09-13.01-2.43-19.7-0.66c-8.99,2.37-17.53,5.84-25.97,9.64
	c-18.91,8.5-35.59,19.98-48.64,36.31C151.58,342.99,149.76,345.5,147.88,347.97z M372.84,415.9c0.51-0.06,0.75-0.02,0.92-0.11
	c6.06-3.6,11.4-7.96,14.89-14.23c0.25-0.45,0.01-1.47-0.37-1.94c-4.6-5.71-7.08-12.28-7.66-19.51c-0.55-6.86,1.26-13.42,3.61-19.74
	c1.48-3.99,1.52-7.61,0.22-11.62c-2.68-8.24-3.48-16.63,0.43-24.75c1.53-3.18,3.6-6.15,5.75-8.98c1.23-1.62,3.22-2.48,5.4-1.64
	c2.13,0.82,2.7,2.75,2.73,4.73c0.03,1.99-0.03,4.07-0.57,5.96c-2.29,7.99-4.46,16.03-7.32,23.82c-1.84,5-1.79,9.5-0.22,14.52
	c3.83,12.19,5.06,24.65,2.27,37.79c2,0.22,4.01,0.49,6.02,0.66c6.1,0.53,12.11,1.21,15.52,7.42c0.2,0.37,1.06,0.37,1.61,0.54
	c0.04-0.51,0.13-1.01,0.11-1.52c-0.01-0.27-0.22-0.52-0.33-0.79c-3.84-9.69-5.02-19.92-5.12-30.17
	c-0.07-7.83,4.41-13.93,10.11-18.98c1.57-1.4,3.5-2.52,5.45-3.34c2.59-1.09,4.39-0.37,5.89,1.99c0.88,1.38,1.78,2.85,2.21,4.4
	c2.21,8.07,4.5,16.14,6.32,24.31c1.48,6.65,2.33,13.44,0.34,20.23c-0.14,0.49,0.07,1.12,0.25,1.65c0.69,2.11,1.32,4.25,2.18,6.3
	c0.38,0.91,1.1,1.86,1.92,2.38c6.34,4,13.4,6.12,20.66,7.62c2.4,0.5,4.84,0.84,7.54,1.31c-0.09-1.25-0.1-2.02-0.21-2.79
	c-2.48-18.11-4.7-36.26-7.55-54.31c-2.17-13.73-5.19-27.32-9.76-40.51c-3.24-9.36-7.84-17.84-15.52-24.37
	c-7.51-6.39-15.32-12.31-24.85-15.46c-7.79-2.57-15.39-3.1-23.27,0.27c-3.7,1.58-8.06,1.85-12.16,2.16
	c-2.13,0.16-2.58,0.57-2.56,2.63c0.16,14-0.47,27.98-3.06,41.77c-2.08,11.11-3.47,22.26-3.3,33.55c0.19,13.19,0.68,26.37,1.06,39.56
	C372.52,409.76,372.7,412.81,372.84,415.9z M218.02,409.97c0.02-14.84-2.16-25.96-7.09-36.45c-4.19-8.91-9.91-16.63-18.4-21.94
	c-1.02-0.64-2.4-0.99-3.61-0.96c-7.83,0.14-13.71,4.12-18.53,9.91c-5.59,6.73-8.72,14.63-10.37,23.12
	c-3.33,17.14-1.95,33.79,6.49,49.31c7,12.86,18.23,21.33,30.94,28.05c1.65,0.87,2.5,0.71,3.65-0.83
	C213.01,444.3,217.08,425.99,218.02,409.97z M403.47,547.67c-0.75-1.55-1.16-2.46-1.63-3.34c-2.45-4.7-5.35-9.22-7.27-14.13
	c-4.42-11.33-4.86-23.35-4.97-35.34c-0.03-3.7,0.75-7.37-0.56-11.05c-3.52-9.93-6.68-19.98-10.39-29.84
	c-3.9-10.35-7.88-20.63-7.97-31.91c0-0.38-0.26-0.75-0.39-1.09c-1.9,0.22-2.48,1.18-2.37,2.95c0.24,4.27-0.33,8.56-3.38,11.66
	c-2.8,2.85-3.73,6.28-4.85,9.8c-0.65,2.05-1.27,4.12-2.14,6.08c-4.23,9.49-8.51,18.95-12.86,28.38c-0.61,1.32-0.42,2.06,0.49,3.19
	c2.46,3.06,4.98,6.14,6.93,9.53c5.47,9.51,8.7,19.92,11.71,30.41c1.72,5.98,2.2,11.92,1.09,18.05c-1.11,6.16-0.52,7.22,5.75,7.54
	c8.57,0.43,17.18,0.34,25.76,0.29C398.66,548.84,400.87,548.13,403.47,547.67z M360.04,424.86c-3.05,1.01-5.51,0.45-7.23-2.05
	c-0.81-1.17-1.57-2.43-2.08-3.75c-1.19-3.07-2.2-6.2-3.32-9.3c-2.42-6.67-4.79-13.18-10.83-17.88c-4.9-3.81-7.69-9.16-7.09-15.81
	c0.16-1.75-0.26-3.57-0.57-5.33c-0.77-4.5-2.32-5.84-6.91-5.58c-1.65,0.09-3.47,0.6-4.82,1.51c-2.24,1.5-4.4,3.26-6.17,5.27
	c-5.75,6.56-8.89,14.47-11.18,22.76c-2.86,10.32-3.95,20.81-2.79,31.5c1.07,9.86,6.84,17.12,13.21,24.04
	c0.4,0.44,1.46,0.54,2.14,0.42c7.69-1.37,15.39-2.69,23.04-4.26c7.53-1.55,14.89-3.68,21.6-7.6c0.89-0.52,2.12-1.21,2.33-2.04
	C360.31,433.01,360.86,429.19,360.04,424.86z M367.78,419.01c1.37-0.6,2.69-0.74,2.63-2.58c-0.41-11.39-0.6-22.79-1.15-34.17
	c-0.55-11.48-0.75-22.94,0.69-34.35c1.19-9.45,3.1-18.82,4.02-28.29c0.89-9.12,0.97-18.31,1.3-27.48c0.11-3.06-0.04-3-2.97-3.33
	c-6.8-0.78-13.43,0.14-20.03,1.72c-2.18,0.52-4.13,1.03-5.69,2.98c-7.66,9.59-14.91,19.46-21.01,30.12
	c-2.78,4.86-5.28,9.86-6.12,15.51c-0.2,1.34,0.12,1.82,1.49,2.2c3.03,0.83,6.12,1.66,8.93,3.02c14.05,6.8,23.3,18.12,28.25,32.59
	c3.13,9.17,4.74,18.88,6.93,28.37C366.07,409.77,366.85,414.28,367.78,419.01z M148.98,437.07c1.26,3.74,2.37,7.12,3.54,10.49
	c3.57,10.22,5.16,20.63,3.93,31.49c-1.02,8.97-1.51,17.99-2.2,26.99c-0.7,9.07-1.19,18.18-3.71,26.99
	c-1.06,3.72-2.26,7.4-3.43,11.09c-0.38,1.21-0.35,2.05,1.18,2.33c8.83,1.6,17.67,3.18,26.68,2.43c2.93-0.24,5.78-1.38,9.03-2.2
	c-0.68-1.18-1.07-1.9-1.5-2.6c-2.06-3.35-4.29-6.61-6.16-10.07c-1.52-2.82-2.1-5.85-0.99-9.12c3.61-10.65,7.16-21.31,10.61-32.01
	c2.15-6.67,4.13-13.41,6.07-20.15c0.2-0.69-0.2-1.79-0.69-2.39c-3.73-4.55-8.54-7.79-13.41-10.98c-4.55-2.98-9.08-6.03-13.37-9.36
	C159.37,445.97,154.43,441.62,148.98,437.07z M343.34,546.01c-0.85-1.68-1.26-2.75-1.89-3.68c-1.87-2.8-3.76-5.59-5.75-8.31
	c-1.99-2.73-3.33-5.65-3.33-9.11c0.02-14.19,2.06-27.99,7.85-41.07c0.51-1.14,0.52-1.85-0.49-2.77
	c-9.59-8.72-19.11-17.51-28.72-26.22c-0.61-0.56-1.87-0.92-2.64-0.7c-3.24,0.89-6.41,2.03-9.61,3.06c-1.39,0.45-1.81,1.25-1.54,2.76
	c0.71,4.09,1.24,8.22,1.84,12.33c2.56,17.65,4.91,35.34,7.8,52.94c0.81,4.94,0.8,9.48-0.95,14.08c-0.13,0.33-0.19,0.69-0.29,1.03
	c-1.5,5.22-1.17,6.03,4.24,6.31c7.93,0.42,15.89,0.46,23.83,0.43C336.72,547.1,339.74,546.44,343.34,546.01z M239.78,474.47
	c-5.15-0.48-10.02-0.7-14.81-1.45c-8.04-1.26-15.69-3.93-23.15-7.17c-0.56-0.24-1.64-0.39-1.89-0.09c-1.43,1.7-2.72,3.51-3.94,5.36
	c-0.22,0.33-0.03,1.12,0.23,1.53c3.19,5.03,4.98,10.61,6.53,16.31c3.14,11.59,5.04,23.28,3.11,35.3c-1.01,6.3-2.14,12.58-3.26,18.86
	c-0.83,4.66-0.56,5.18,4.07,5.49c4.79,0.31,9.62,0.75,14.39,0.45c5.83-0.37,11.65-1.28,17.42-2.3c2.75-0.49,3.03-1.55,1.61-4
	c-1.25-2.17-2.7-4.23-4.15-6.28c-1.84-2.6-2.89-5.4-2.86-8.62c0.04-4.3-0.15-8.61,0.05-12.9c0.43-9.61,1.21-19.16,4.82-28.27
	C239.52,482.75,240.24,478.58,239.78,474.47z M448.71,431.91c0.05,0.71,0.04,1.13,0.1,1.53c0.71,4.31,1.59,8.61,2.13,12.94
	c1.41,11.31,2.39,22.68,4.08,33.95c1.45,9.64,4.56,18.83,10.54,26.76c5.47,7.25,12.5,11.37,21.88,10.1
	c10.73-1.45,17.83-11.22,20.12-19.1c0.46-1.59-0.44-2.31-1.64-3.06c-4.74-2.96-6.42-7.36-4.98-12.74c0.23-0.85,0.44-1.71,0.68-2.67
	c-2.82,0.35-4.25,1.74-4.88,4.69c-0.44,2.03-0.49,4.15-1.03,6.14c-0.81,2.94-1.39,6.12-2.98,8.61c-3.09,4.84-9.64,4.41-12.35-0.63
	c-1.24-2.31-2.21-4.85-2.81-7.4c-2.65-11.11-2.75-22.45-2.82-33.79c-0.04-6.88-0.16-13.76-0.19-20.64
	c-0.01-1.62-0.57-2.18-2.27-2.24c-4.8-0.19-9.59-0.54-14.37-1.01C454.92,433.06,451.97,432.44,448.71,431.91z M202.64,463.38
	c-0.09-0.06,0.13,0.13,0.39,0.24c0.98,0.44,1.96,0.88,2.96,1.26c10.14,3.95,20.47,6.99,31.53,6.73c1.86-0.04,2.25-0.66,2.08-2.44
	c-0.48-5.06-0.91-10.14-1.06-15.21c-0.44-14.91-1.19-29.78-3.65-44.53c-1.85-11.07-4.14-21.96-9.65-31.92
	c-5.67-10.25-12.93-18.91-23.68-24.15c-1.02-0.5-2.12-0.85-3.74-1.49c0.56,0.71,0.66,0.9,0.81,1.03
	c9.19,7.94,14.92,18.07,18.36,29.54c6.48,21.58,3.72,42.6-4.65,63.04C209.82,451.65,205.99,457.28,202.64,463.38z M197.74,464.29
	c-4.71-2.97-9.32-5.6-13.64-8.65c-8.6-6.08-15.98-13.44-20.57-23.02c-9.76-20.37-10.22-41.18-1.97-62.14
	c2.97-7.55,7.61-14.02,14.61-18.39c2.76-1.72,5.95-2.76,8.99-4.13c-0.55-0.2-1.12-0.48-1.73-0.64c-10.93-2.81-21.47-1.73-32.02,2.28
	c-7.08,2.69-9.61,7.75-10.06,14.61c-0.01,0.21-0.03,0.43-0.03,0.64c0,8.03-0.29,16.07,0.07,24.08c0.59,13.4,1.6,26.78,5.13,39.8
	c0.37,1.37,1.21,2.75,2.19,3.8c9.13,9.74,19.61,17.81,30.87,24.93c5.05,3.19,9.88,6.64,13.77,11.25c0.16,0.19,0.46,0.27,0.77,0.45
	C195.35,467.51,196.53,465.92,197.74,464.29z M307.79,451.45c-1.44-1.74-2.73-3.27-3.99-4.83c-4.57-5.66-8.15-11.78-9.06-19.17
	c-2.03-16.54,0.68-32.37,7.98-47.24c4.36-8.87,9.69-17.26,21.39-17.85c-0.19-0.29-0.3-0.55-0.49-0.73
	c-4.54-4.48-6.33-10.16-6.8-16.3c-0.14-1.84-0.74-2.28-2.42-2.26c-8.36,0.07-15.31,3.3-21.05,9.25c-7.2,7.47-10.34,16.73-11.36,26.8
	c-1.4,13.86,0.92,27.31,5.01,40.48c2.85,9.16,6.36,18.12,7.99,27.64c0.45,2.65,1.03,5.28,1.56,7.97
	C300.39,453.93,303.96,452.73,307.79,451.45z M438.89,399.91c0.19-0.03,0.37-0.06,0.56-0.1c0-2.33,0.34-4.71-0.06-6.96
	c-1.4-7.89-2.84-15.79-4.69-23.59c-0.92-3.86-2.62-7.57-4.21-11.24c-0.93-2.14-2.11-2.43-4.18-1.34c-1.5,0.8-3.01,1.73-4.23,2.89
	c-5.07,4.82-9.25,10.37-8.85,17.69c0.39,7.12,1.61,14.22,2.76,21.28c0.47,2.89,1.73,5.65,2.5,8.04c4.08-1.11,7.66-2.09,11.37-3.1
	c-0.13-0.28-0.56-0.94-0.77-1.66c-0.57-1.97-1.27-3.95-1.5-5.97c-0.21-1.85,0.52-3.61,2.41-4.41c1.97-0.84,3.5,0.23,4.76,1.58
	c0.87,0.93,1.61,2.02,2.26,3.12C437.72,397.35,438.27,398.65,438.89,399.91z M319.13,343.61c0.66,6.88,1.95,12.97,7.55,17.25
	c0.94,0.72,1.63,1.78,2.44,2.68c0.57,0.63,1.1,1.29,1.71,1.87c3.18,2.97,6.77,5.6,9.5,8.94c9.05,11.06,15.09,23.78,19.37,37.36
	c1,3.17,1.79,6.41,2.66,9.58c2.48-0.12,3.07-1.32,2.61-3.45c-2.56-11.9-4.55-23.95-7.71-35.69c-3.93-14.55-12.27-26.25-25.49-34.04
	C328.01,345.88,323.99,344.23,319.13,343.61z M139.92,356.9c-0.83,0.63-1.39,1.04-1.93,1.47c-6.46,5.2-9.89,12.06-11.31,20.14
	c-3.79,21.45-4.27,43.08-3.07,64.72c0.96,17.31,2.88,34.57,4.38,51.85c0.1,1.11,0.25,2.21,0.37,3.32c0.2,0.01,0.4,0.03,0.6,0.04
	c1.99-5.59,4.17-11.09,3.2-17.36c-1.78-11.54-4.34-23.08-4.76-34.68c-0.56-15.22,0.43-30.51,1.16-45.75
	c0.27-5.61,1.61-11.17,2.64-16.72c0.28-1.52,1.16-3.09,3.17-2.95c2.05,0.15,3.1,1.57,3.25,3.42c0.22,2.63,0.21,5.28,0.2,7.92
	c-0.04,6.94-0.3,13.89-0.13,20.82c0.11,4.28,2.14,7.97,4.48,11.25c-1.07-11.16-2.41-22.33-3.15-33.53
	C138.28,379.66,137.83,368.43,139.92,356.9z M358.14,441.16c-14.18,7.6-29.75,8.79-44.81,11.89c-0.09,0.24-0.18,0.48-0.27,0.72
	c9.56,8.63,19.12,17.25,28.74,25.93C346.12,473.23,357.4,446.7,358.14,441.16z M331.46,369c0.22,3.16,0.65,5.94,0.55,8.7
	c-0.12,3.21,0.82,5.99,2.73,8.39c1.68,2.11,3.74,3.91,5.57,5.91c1.53,1.68,3.47,3.22,4.36,5.2c2.54,5.67,4.6,11.55,6.94,17.31
	c0.94,2.31,2.02,4.58,3.24,6.75c0.87,1.56,2.51,2.17,4.03,1.19c0.54-0.35,0.55-2.01,0.33-2.96c-3.48-14.66-9.56-28.17-18.33-40.44
	C338.27,375.39,335.43,371.9,331.46,369z M445.13,428.22c-0.86-3.23-1.63-5.9-2.25-8.59c-0.55-2.39-1.6-4.26-3.73-5.71
	c-1.81-1.22-3.25-3-4.86-4.51c-0.72-0.67-1.37-1.57-2.23-1.92c-4.32-1.76-8.22-0.76-11.93,2.08
	C425.2,419.93,434.16,424.88,445.13,428.22z M387.35,359.91c-6.59,9.63-4.57,32.93,3.55,38.14
	C393.18,384.9,391.4,372.4,387.35,359.91z M387.57,350.09c1.25-3.63,2.45-6.62,3.31-9.69c1.89-6.73,3.72-13.49,5.3-20.3
	c0.3-1.29-0.22-3.6-1.13-4.15c-1.68-1-2.93,0.86-3.91,2.13C383.63,327.79,383.3,338.38,387.57,350.09z M473.9,432.31
	c0.5-5.36,0.45-5.38-4.03-6.14c-6.86-1.16-13.59-2.82-19.98-5.65c-1.47-0.65-2.9-1.38-4.76-2.26c0.4,1.58,0.88,2.72,0.96,3.89
	c0.41,5.58,3.24,8.16,8.93,8.39C461.28,430.78,467.51,431.68,473.9,432.31z M476.42,427.13c0.08,1.33,0.14,2.26,0.18,3.19
	c0.05,1.16,0.6,1.59,1.79,1.53c7.04-0.34,14.03-1.07,20.61-3.8c2.91-1.21,5.64-2.86,8.46-4.32c-0.1-0.27-0.2-0.54-0.31-0.81
	C497.55,428.59,487.04,427.52,476.42,427.13z M374.73,286.62c-0.18-2.33-1.45-3.08-2.91-3.56c-4.95-1.62-9.8-1.05-14.47,1
	c-1.82,0.8-3.44,2.06-5.14,3.11c0.11,0.25,0.22,0.51,0.33,0.76C359.76,286.12,367.06,285.45,374.73,286.62z M438.33,404.46
	c-1.86-3.36-3.61-6.6-5.49-9.76c-0.29-0.48-1.45-0.98-1.76-0.78c-0.55,0.35-0.9,1.21-1.07,1.92c-0.14,0.59-0.04,1.33,0.2,1.89
	c0.88,2.03,1.74,4.08,2.84,6C434.31,405.93,435.11,406.03,438.33,404.46z M365.45,423.56c-0.22-0.17-0.45-0.35-0.67-0.52
	c-0.69,0.64-1.91,1.23-1.97,1.93c-0.23,2.73-0.09,5.49-0.09,8.23C365.36,430.36,365.57,427,365.45,423.56z M436.56,408.28
	c1.15,1.07,2.09,1.94,3.23,3.01C439.53,407.57,439.01,407.07,436.56,408.28z"/>
</svg>
