<?xml version="1.0" encoding="utf-8"?>
<!-- Generator: Adobe Illustrator 24.0.0, SVG Export Plug-In . SVG Version: 6.00 Build 0)  -->
<svg version="1.1" id="Layer_1" xmlns="http://www.w3.org/2000/svg" xmlns:xlink="http://www.w3.org/1999/xlink" x="0px" y="0px"
	 viewBox="0 0 612 792" style="enable-background:new 0 0 612 792;" xml:space="preserve">
<style type="text/css">
	.st0{fill:#FFFFFF;}
</style>
<g>
	<path class="st0" d="M265.49,374.55c0-18.27-0.14-35.17,0.17-52.06c0.04-2.16,2.11-4.53,3.75-6.35c2.62-2.93,5.67-5.49,9.75-9.35
		c0,9.62,0,17.67,0,25.73c0.5,0.23,1,0.46,1.51,0.69c8.25-9.46,16.49-18.92,23.98-27.5c-5.69,0-14.05,0-24.24,0
		c12.56-11.94,23.67-22.51,35.93-34.17c-17.58,0-33.73,0-50.06,0c-1.39-7.03-1.41-12.32,4.34-17.3
		c14.59-12.65,28.54-26.03,42.87-38.97c1.64-1.48,4.1-2.9,6.19-2.92c21.33-0.21,42.65-0.13,64.72-0.13c0,9.26,0,18.39,0,27.94
		c8.2,0,15.68,0,24.72,0c-13.38,10.64-25.19,20.88-37.88,29.89c-13.31,9.45-22.84,21.7-30.95,36.12c5.12,1,9.95,1.95,15.06,2.95
		c0.28,5.07,0.55,10.03,0.83,15.13c4.76,0.71,9.07,1.36,13.67,2.05c0,24.48,0,48.74,0,73.75c-11.56,0-22.92,0-34.73,0
		c0,14.54,0,28.35,0,42.82c-10.59,0-20.73,0-31.4,0c0,6.77,0,12.89,0,19.38c-9.46,0-18.39,0-27.96,0c0-15.43-0.12-30.67,0.16-45.91
		c0.03-1.77,1.98-3.76,3.48-5.2c12.29-11.85,24.69-23.6,38.32-36.58C299.55,374.55,282.87,374.55,265.49,374.55z"/>
	<path class="st0" d="M218.4,702.02c0,14.26,0,27.91,0,42.04c98.91,0,197.41,0,296.37,0c0-13.9,0-27.7,0-41.96
		c15.4,0,30.33,0,45.78,0c0,13.39,0,26.6,0,40.41c8.23,0,15.98,0,24.11,0c0,4.28,0,7.97,0,11.98c-171.91,0-343.69,0-515.79,0
		c0-4.26,0-8.22,0-12.98c9.13,0,18.26,0,27.84,0c0-13.56,0-26.34,0-39.49C137.31,702.02,177.45,702.02,218.4,702.02z"/>
	<path class="st0" d="M221.02,741.64c0-13.56,0-26.41,0-39.63c72.22,0,144.19,0,216.5,0c0,13.19,0,26.17,0,39.63
		C365.41,741.64,293.49,741.64,221.02,741.64z"/>
	<path class="st0" d="M372.16,324.52c-4.88-1.21-10.93-0.96-13.16-3.76c-2.32-2.92-0.96-8.78-1.23-13.7
		c-4.36-0.89-8.6-1.75-13.6-2.77c4.3-6.36,8.19-12.12,12.58-18.62c7.83,9.8,15.28,19.12,22.14,27.72
		c-0.64,3.97-1.55,7.13-1.59,10.31c-0.17,12.85-0.07,25.71-0.07,39.37c2.65-1.68,4.72-2.98,7.38-4.66c0,46.13,0,91.67,0,137.62
		c-36,0-71.95,0-108.57,0c-0.07-1.66-0.15-3.5-0.26-5.89c20.55,0,40.6,0,61.3,0c0-29.17,0-57.83,0-87.27c11.97,0,23.3,0,35.07,0
		C372.16,376.25,372.16,350.4,372.16,324.52z M350.88,425.24c0,21.9,0,43.25,0,64.64c3.96,0,7.49,0,11.31,0c0-21.66,0-43.01,0-64.64
		C358.32,425.24,354.8,425.24,350.88,425.24z"/>
	<path class="st0" d="M265.39,633.78c0-22.35,0-44.38,0-66.84c43.19,0,86.13,0,129.62,0c0,22.1,0,44.27,0,66.84
		C351.94,633.78,308.83,633.78,265.39,633.78z M281.43,628.13c8.64,0,16.58,0,24.76,0c0-18.43,0-36.44,0-54.65
		c-8.46,0-16.55,0-24.76,0C281.43,591.88,281.43,609.75,281.43,628.13z M318.4,573.25c0,18.73,0,36.75,0,54.8
		c8.49,0,16.59,0,24.62,0c0-18.52,0-36.54,0-54.8C334.67,573.25,326.69,573.25,318.4,573.25z M380.79,573.35
		c-8.64,0-16.59,0-24.82,0c0,18.38,0,36.37,0,54.78c8.31,0,16.43,0,24.82,0C380.79,609.81,380.79,591.79,380.79,573.35z"/>
	<path class="st0" d="M512.08,741.8c-23.95,0-47.46,0-71.39,0c0-13.28,0-26.26,0-39.71c23.62,0,47.27,0,71.39,0
		C512.08,715,512.08,728.14,512.08,741.8z"/>
	<path class="st0" d="M246.85,698.57c0-5.73,0-10.9,0-16.36c56.26,0,112.21,0,168.5,0c0,5.63,0,10.76,0,16.36
		C359.24,698.57,303.28,698.57,246.85,698.57z"/>
	<path class="st0" d="M443.26,264.58c-20.56,16.47-40.58,32.51-61.04,48.9c-7.99-10.02-15.6-19.58-23.73-29.78
		c18.53-14.74,36.88-29.33,55.75-44.33C423.84,247.7,433.32,255.94,443.26,264.58z"/>
	<path class="st0" d="M412.01,538.96c0,5.53,0,10.69,0,16.16c-54.27,0-108.27,0-162.56,0c0-5.42,0-10.57,0-16.16
		C303.47,538.96,357.47,538.96,412.01,538.96z"/>
	<path class="st0" d="M396.39,499.31c0,5.86,0,11.26,0,17.06c-43.7,0-87.23,0-131.14,0c0-5.53,0-11.07,0-17.06
		C308.73,499.31,352.26,499.31,396.39,499.31z"/>
	<path class="st0" d="M411.46,678.47c-54.2,0-106.63,0-160.24,0c6.77-7.34,10.71-15.15,22.9-14.83c37.62,0.96,75.28,0.52,112.92,0.2
		c6.77-0.06,12.04,1.22,16.22,6.74C405.18,673.1,407.85,675.05,411.46,678.47z"/>
	<path class="st0" d="M379.65,358.12c0-12.8-0.07-24.46,0.09-36.11c0.02-1.57,0.76-3.66,1.91-4.6
		c20.9-16.95,41.92-33.77,63.36-50.98c3.1,3.83,5.94,7.34,9.2,11.37c-5.64,4.32-10.78,8.42-16.12,12.24
		c-1.1,0.79-2.99,0.86-4.45,0.7c-9.52-1.04-16.12,2.76-17.7,10.35c-1.77,8.53,2.5,14.58,12.32,17.49c0.32,0.1,0.59,0.4,1.24,0.86
		C413.1,332.16,396.83,344.79,379.65,358.12z"/>
	<path class="st0" d="M351.05,142.53c-14.28,0-28.84,0-44.16,0c-0.21,4.68-0.39,8.78-0.54,12.12c-8.38-8.68-16.98-17.59-24.75-25.64
		c7.32,0,17.03,0,27.49,0c0-9.94,0-19.25,0-28.44C323.25,114.72,337.06,128.53,351.05,142.53z"/>
	<path class="st0" d="M237.3,169.84c0-14.58-0.09-28.83,0.17-43.07c0.02-1.1,2.35-2.97,3.74-3.1c4.36-0.4,8.79-0.15,13.84-0.15
		c0-8.03,0-15.55,0-23.42c2.98,0,5.31,0,8.13,0c0,23.49,0,47.11,0,71.25c-1.51,0.11-3.17,0.23-5.24,0.39
		c-0.19-3.2-0.36-5.95-0.55-9.14c-3.38,0-6.69,0-10.36,0c-0.28,2.31-0.55,4.61-0.87,7.24C243.27,169.84,240.58,169.84,237.3,169.84z
		"/>
	<path class="st0" d="M308.99,208.52c0-20.01-0.01-39.49,0.02-58.97c0-1.17,0.22-2.33,0.38-3.88c15.23,0,30.17,0,45.9,0
		c0,11.85,0.32,23.46-0.13,35.04c-0.23,6.07,1.21,10.76,5.69,14.96c3.9,3.66,7.14,8.03,11.32,12.84
		C350.76,208.52,330.29,208.52,308.99,208.52z M314.46,149.34c-0.2,1.13-0.62,2.44-0.63,3.76c-0.05,10.24-0.19,20.49,0.02,30.73
		c0.21,9.92,6.8,16.8,16.32,17.55c10.14,0.8,18.7-4.59,19.6-14.49c1.11-12.27,0.27-24.71,0.27-37.55
		C338.07,149.34,326.48,149.34,314.46,149.34z"/>
	<path class="st0" d="M262.45,267.96c-6.59-5.44-12.5-10.15-18.16-15.13c-0.97-0.86-1.25-2.84-1.32-4.34
		c-0.9-17.88-0.88-17.88,12.44-30.17c8.4-7.75,16.81-15.49,25.82-23.79c5.12,4.75,10.11,9.38,15.05,13.96
		c-0.55,0.72-0.69,1-0.77,0.99c-14.7-3.14-21.9,7.95-30.41,16.28c-1.44,1.41-1.93,4.3-1.97,6.52c-0.21,10.03-0.08,20.07-0.12,30.1
		C263.01,263.88,262.72,265.38,262.45,267.96z"/>
	<path class="st0" d="M395.26,643.82c0,2.99,0,5.52,0,8.46c-43.27,0-86.25,0-129.71,0c0-2.76,0-5.42,0-8.46
		C308.67,643.82,351.66,643.82,395.26,643.82z"/>
	<path class="st0" d="M241.55,227.61c-4.78-5.63-8.92-10.52-13.41-15.8c12.27-11.33,24.32-22.46,36.64-33.84
		c4.82,4.87,9.42,9.52,14.59,14.75C266.9,204.22,254.45,215.7,241.55,227.61z"/>
	<path class="st0" d="M265.73,420.47c0-15.42,0-29.24,0-43.45c14.74,0,29.31,0,45.69,0C295.81,391.86,281.24,405.72,265.73,420.47z"
		/>
	<path class="st0" d="M385.28,127.99c-8.76,9.48-17.53,18.96-26.32,28.48c-0.61-0.65-1.11-0.96-1.07-1.17
		c1.79-9.25-2.91-15.37-9.46-20.99c-5.48-4.7-10.43-10.03-16.1-15.56c7.28-6.54,14.18-12.74,22.39-20.11c0,10.27,0,18.93,0,27.95
		c10.51,0,20.13,0,29.75,0C384.74,127.05,385.01,127.52,385.28,127.99z"/>
	<path class="st0" d="M396.31,519.59c0,2.35,0,4.3,0,6.55c-43.81,0-87.38,0-131.19,0c0-2.25,0-4.2,0-6.55
		C308.69,519.59,352.26,519.59,396.31,519.59z"/>
	<path class="st0" d="M265.71,315.98c0-14.87,0-28.07,0-41.77c14.28,0,28.41,0,44.12,0C294.98,288.27,280.93,301.57,265.71,315.98z"
		/>
	<path class="st0" d="M265.57,255.67c0-9.55-0.49-17.53,0.27-25.4c0.25-2.6,3.84-4.8,5.68-7.35c6.96-9.65,16.43-12.45,27.84-10.86
		c3.87,0.54,7.88,0.09,13.71,0.09C296.73,227.11,281.77,240.82,265.57,255.67z"/>
	<path class="st0" d="M396.4,529.19c0,2.12,0,3.7,0,5.79c-43.64,0-87.13,0-131.24,0c-0.08-1.7-0.16-3.57-0.27-5.79
		C308.85,529.19,352.36,529.19,396.4,529.19z"/>
	<path class="st0" d="M395.33,558.17c0,1.94,0,3.5,0,5.49c-43.24,0-86.38,0-129.88,0c0-1.83,0-3.5,0-5.49
		C308.65,558.17,351.64,558.17,395.33,558.17z"/>
	<path class="st0" d="M306.53,481.66c0-12.4,0-23.8,0-35.68c8.71,0,17.81,0,27.32,0c0.98,6,1.2,11.32-4.62,15.85
		c-6.63,5.16-12.48,11.31-18.7,16.99C309.58,479.67,308.44,480.31,306.53,481.66z"/>
	<path class="st0" d="M394.82,660.76c-10.92,0-21.58,0-32.23,0c-30.61,0-61.22,0.04-91.82-0.11c-1.88-0.01-5.25-1.39-5.38-2.44
		c-0.55-4.42,3.31-3,5.52-3.01c39.67-0.09,79.34-0.06,119.01-0.07C393.21,655.13,396.85,654.73,394.82,660.76z"/>
	<path class="st0" d="M330.25,636.6c20.1,0,40.2-0.05,60.3,0.09c1.63,0.01,3.25,1.24,4.87,1.91c-1.67,0.81-3.35,2.33-5.02,2.33
		c-40,0.13-80,0.13-119.99,0.01c-1.74-0.01-3.48-1.43-5.22-2.19c1.79-0.71,3.58-2.04,5.37-2.05
		C290.46,636.54,310.35,636.6,330.25,636.6z"/>
	<path class="st0" d="M412.91,237.38c-8.54,0-16.7,0-25.34,0c0-8.17,0-16.44,0-24.71C402.17,212.18,411.83,221.33,412.91,237.38z"/>
	<path class="st0" d="M237.84,172.9c3.61-0.18,6.97-0.35,10.69-0.53c0.24-2.33,0.46-4.47,0.75-7.36c1.69-0.09,3.5-0.18,5.65-0.29
		c0.18,3.31,0.34,6.05,0.51,9.06c2.67,0.31,5.18,0.6,8.91,1.03c-9.04,8.37-17.34,16.05-26.51,24.54
		C237.84,190.05,237.84,181.85,237.84,172.9z"/>
	<path class="st0" d="M334.72,460.1c0,9.85,0,18.26,0,27.07c-9.36,0-18.51,0-29.3,0C315.47,477.88,324.73,469.33,334.72,460.1z"/>
	<path class="st0" d="M418.13,303.97c0.22-6.35,5.38-11.34,11.64-11.25c6.49,0.09,11.71,5.57,11.48,12.07
		c-0.2,6.01-5.78,11.42-11.71,11.36C423.18,316.08,417.91,310.46,418.13,303.97z"/>
	<path class="st0" d="M246.59,63.74c6.91,0,13.28,0,20.07,0c0,5.95,0,11.67,0,17.83c-6.6,0-13.11,0-20.07,0
		C246.59,75.76,246.59,70.05,246.59,63.74z"/>
	<path class="st0" d="M243.25,81.66c-6.76,0-13.08,0-19.73,0c0-6.05,0-11.75,0-17.81c6.64,0,12.95,0,19.73,0
		C243.25,69.7,243.25,75.4,243.25,81.66z"/>
	<path class="st0" d="M227.75,95.37c6.32,0,12.48,0,19.11,0c0,5.43,0,10.71,0,16.32c-6.28,0-12.43,0-19.11,0
		C227.75,106.3,227.75,101.17,227.75,95.37z"/>
	<path class="st0" d="M303.43,487.3c-8.24,0-16.14,0-25.65,0c8.88-8.34,16.76-15.74,25.65-24.09
		C303.43,471.87,303.43,479.29,303.43,487.3z"/>
	<path class="st0" d="M249.34,92.95c-3.67-0.18-7.2-0.35-10.97-0.53c0-2.29,0-4.24,0-6.59c4.54,0,9.07,0,14.01,0
		c0,11.5,0,23.03,0,34.87c-4.93,0-9.65,0-14.76,0c-0.1-2.05-0.18-3.75-0.3-6.05c4.11,0,7.85,0,12.01,0
		C249.34,107.15,249.34,100.23,249.34,92.95z"/>
	<path class="st0" d="M276.14,465.34c6.78,0,13.28,0,21.17,0c-7.37,6.94-13.93,13.11-21.17,19.93
		C276.14,478.09,276.14,471.87,276.14,465.34z"/>
	<path class="st0" d="M281.93,328.27c0-7.36,0-13.44,0-19.92c6.47,0,12.75,0,18.69,0C294.74,314.62,288.73,321.02,281.93,328.27z"/>
	<path class="st0" d="M266.44,16.48c0,13.85,0,25.87,0,38.17c-13.51,0-26.85,0-40.18,0c-0.24-0.46-0.48-0.92-0.72-1.38
		C238.83,41.32,252.12,29.37,266.44,16.48z"/>
	<path d="M350.88,425.24c3.92,0,7.44,0,11.31,0c0,21.64,0,42.98,0,64.64c-3.82,0-7.34,0-11.31,0
		C350.88,468.49,350.88,447.14,350.88,425.24z M359.62,487.55c0-20.44,0-40.16,0-59.83c-2.41,0-4.33,0-6.4,0c0,20.1,0,39.85,0,59.83
		C355.5,487.55,357.44,487.55,359.62,487.55z"/>
	<path d="M281.43,628.13c0-18.38,0-36.25,0-54.65c8.21,0,16.3,0,24.76,0c0,18.2,0,36.21,0,54.65
		C298.01,628.13,290.07,628.13,281.43,628.13z M284.15,575.72c0,16.99,0,33.48,0,49.89c6.87,0,13.17,0,19.52,0
		c0-16.87,0-33.22,0-49.89C297.08,575.72,290.92,575.72,284.15,575.72z"/>
	<path d="M318.4,573.25c8.29,0,16.27,0,24.62,0c0,18.26,0,36.28,0,54.8c-8.03,0-16.13,0-24.62,0
		C318.4,609.99,318.4,591.98,318.4,573.25z M340.65,575.86c-6.82,0-13.29,0-19.87,0c0,16.86,0,33.26,0,49.79c6.82,0,13.29,0,19.87,0
		C340.65,608.78,340.65,592.39,340.65,575.86z"/>
	<path d="M380.79,573.35c0,18.45,0,36.47,0,54.78c-8.39,0-16.51,0-24.82,0c0-18.41,0-36.4,0-54.78
		C364.2,573.35,372.15,573.35,380.79,573.35z M378.17,625.77c0-16.9,0-33.45,0-49.9c-6.82,0-13.15,0-19.65,0c0,16.86,0,33.25,0,49.9
		C365.26,625.77,371.6,625.77,378.17,625.77z"/>
	<path d="M314.46,149.34c12.02,0,23.61,0,35.58,0c0,12.84,0.84,25.28-0.27,37.55c-0.89,9.91-9.46,15.29-19.6,14.49
		c-9.52-0.75-16.12-7.63-16.32-17.55c-0.22-10.24-0.08-20.49-0.02-30.73C313.83,151.78,314.26,150.46,314.46,149.34z M316.24,160.43
		c0,8.08-0.19,15.69,0.05,23.28c0.27,8.86,6.15,14.77,14.71,15.28c8.57,0.52,15.79-4.58,16.64-13.19
		c0.82-8.29,0.18-16.73,0.18-25.37C337.27,160.43,327.28,160.43,316.24,160.43z M347.32,151.31c-9.03,0-17.87-0.16-26.69,0.15
		c-1.48,0.05-2.89,2.11-4.33,3.23c1.36,1.01,2.69,2.84,4.08,2.89c7.84,0.28,15.7,0.01,23.55,0.19
		C348.22,157.88,348.53,155.74,347.32,151.31z"/>
	<path class="st0" d="M359.62,487.55c-2.19,0-4.12,0-6.4,0c0-19.98,0-39.74,0-59.83c2.07,0,3.99,0,6.4,0
		C359.62,447.39,359.62,467.11,359.62,487.55z"/>
	<path class="st0" d="M284.15,575.72c6.76,0,12.92,0,19.52,0c0,16.67,0,33.02,0,49.89c-6.35,0-12.65,0-19.52,0
		C284.15,609.19,284.15,592.7,284.15,575.72z"/>
	<path class="st0" d="M340.65,575.86c0,16.53,0,32.92,0,49.79c-6.58,0-13.06,0-19.87,0c0-16.53,0-32.92,0-49.79
		C327.36,575.86,333.84,575.86,340.65,575.86z"/>
	<path class="st0" d="M378.17,625.77c-6.56,0-12.9,0-19.65,0c0-16.66,0-33.04,0-49.9c6.5,0,12.84,0,19.65,0
		C378.17,592.32,378.17,608.87,378.17,625.77z"/>
	<path class="st0" d="M316.24,160.43c11.04,0,21.03,0,31.58,0c0,8.64,0.65,17.08-0.18,25.37c-0.86,8.61-8.07,13.71-16.64,13.19
		c-8.56-0.52-14.44-6.43-14.71-15.28C316.05,176.12,316.24,168.51,316.24,160.43z"/>
	<path class="st0" d="M347.32,151.31c1.21,4.44,0.9,6.57-3.39,6.47c-7.85-0.18-15.71,0.09-23.55-0.19
		c-1.39-0.05-2.72-1.88-4.08-2.89c1.44-1.13,2.85-3.18,4.33-3.23C329.45,151.15,338.29,151.31,347.32,151.31z"/>
</g>
<path d="M221.28,61.45c15.99,0,31.8,0,47.91,0c0,7.55,0,14.73,0,22.6c-4.48,0.23-8.96,0.46-13.69,0.7c0,4.11,0,7.87,0,12.33
	c3.28,0,6.58,0,10.58,0c0,2.84,0,5,0,7.15c0,21.95-0.12,43.9,0.15,65.84c0.04,2.81,1.45,6.26,3.4,8.29
	c9.19,9.57,18.71,18.85,28.32,28c1.91,1.82,4.74,2.65,8.59,4.72c0-9.53,0.03-17.13-0.01-24.72c-0.04-8.45,2.13-17.85-0.88-25.08
	c-3-7.2-11.25-12.21-17.16-18.21c-5.16-5.23-10.29-10.5-16.25-16.58c11.89,0,22.83,0,34.48,0c0-11.2,0-21.74,0-33.96
	c8.44,9,15.71,16.75,23.23,24.76c9.28-8.24,17.66-15.67,27.04-23.99c0,10.79,0,20.46,0,30.88c11.67,0,22.59,0,35.19,0
	c-8.42,9.18-15.09,17.81-23.13,24.87c-9.33,8.19-12.6,17.5-11.63,29.68c0.52,6.58,1.29,12.14,6.51,16.5
	c1.22,1.02,2.25,2.32,3.18,3.62c5.38,7.52,11.62,11.63,21.9,11.36c14.68-0.39,23.46,8.71,26.46,23.13c0.59,2.82,2.66,5.73,4.83,7.76
	c11.84,11.12,25.58,20.28,34.94,33.96c0.67,0.98,1.35,1.94,2.3,3.29c-6.17,4.8-12.17,9.48-18.3,14.25c1.45,2.89,3.48,5.54,4.13,8.5
	c1.56,7.06-1.63,12.29-7.26,16.57c-14.9,11.33-29.74,22.75-44.34,34.45c-2.14,1.71-4.05,5.17-4.07,7.83
	c-0.25,43.9-0.18,87.79-0.16,131.69c0,1.36,0.21,2.73,0.36,4.53c3.58,0.16,6.91,0.31,10.81,0.49c0,12.99,0,25.78,0,39.22
	c5.45,0,10.36,0,15.62,0c0,7.57,0,14.48,0,21.96c-5.35,0-10.5,0-16.05,0c-0.12,2.49-0.29,4.45-0.29,6.4
	c-0.02,30.61-0.12,61.22,0.15,91.82c0.03,3.18,1.65,6.98,3.78,9.39c4.49,5.06,9.88,9.3,14.71,14.07c0.94,0.93,1.37,2.73,1.42,4.16
	c0.17,4.98,0.06,9.96,0.06,15.44c48.44,0,96.29,0,144.86,0c0,13.85,0,27.21,0,41.18c8.45,0,16.2,0,24.21,0c0,5.77,0,10.93,0,16.51
	c-173.49,0-346.94,0-520.73,0c0-5.82,0-11.57,0-17.87c9.31,0,18.3,0,27.76,0c0-13.33,0-26.11,0-39.62c50.08,0,99.68,0,148.63,0
	c0.77-0.88,1.05-1.06,1.02-1.18c-3.25-14.13,5.13-23.04,14.3-31.46c3.56-3.27,4.63-6.96,4.6-11.74c-0.19-30-0.1-60.01-0.1-90.01
	c0-2.16,0-4.33,0-6.86c-5.38,0-10.16,0-15.42,0c0-7.29,0-14.21,0-21.79c4.75,0,9.66,0,15.11,0c0-13.44,0-26.23,0-39.52
	c3.82-0.21,7.12-0.39,10.69-0.59c0-25.85,0-51.36,0-77.72c-3.24,2.72-6.13,5.14-9.99,8.38c0-3.46,0-5.82,0-8.17
	c0-46.92-0.06-93.84,0.11-140.75c0.02-4.49-1-7.78-4.85-10.09c-0.85-0.51-1.51-1.36-2.36-1.87c-11.79-7.04-18.45-16.44-15.68-31.05
	c0.49-2.58-1.56-6.12-3.34-8.55c-3.66-5.02-7.94-9.59-11.88-14.25c0.28-0.63,0.34-1.14,0.61-1.31c8.34-5.21,9.68-12.85,9.42-22.17
	c-0.63-22.33-0.2-44.7-0.2-67.05c0-2.17,0-4.33,0-6.84c-3.46-0.25-6.38-0.47-9.66-0.71c0-7.17,0-13.91,0-21.05
	c3.25-0.16,6.4-0.32,10-0.5c0-2.39,0-4.69,0-7.7c-4.37,0-8.88,0-13.91,0C221.28,76.57,221.28,69.1,221.28,61.45z M265.49,374.55
	c17.37,0,34.06,0,52.22,0c-13.62,12.98-26.02,24.72-38.32,36.58c-1.49,1.44-3.44,3.43-3.48,5.2c-0.28,15.23-0.16,30.48-0.16,45.91
	c9.57,0,18.5,0,27.96,0c0-6.48,0-12.6,0-19.38c10.66,0,20.81,0,31.4,0c0-14.47,0-28.28,0-42.82c11.81,0,23.17,0,34.73,0
	c0-25,0-49.26,0-73.75c-4.6-0.69-8.91-1.34-13.67-2.05c-0.28-5.1-0.55-10.06-0.83-15.13c-5.11-1-9.95-1.94-15.06-2.95
	c8.11-14.42,17.64-26.67,30.95-36.12c12.69-9.01,24.5-19.25,37.88-29.89c-9.05,0-16.52,0-24.72,0c0-9.55,0-18.67,0-27.94
	c-22.06,0-43.39-0.08-64.72,0.13c-2.09,0.02-4.55,1.44-6.19,2.92c-14.33,12.94-28.28,26.32-42.87,38.97
	c-5.74,4.98-5.72,10.27-4.34,17.3c16.33,0,32.47,0,50.06,0c-12.26,11.66-23.37,22.23-35.93,34.17c10.18,0,18.54,0,24.24,0
	c-7.49,8.59-15.73,18.05-23.98,27.5c-0.5-0.23-1-0.46-1.51-0.69c0-8.06,0-16.11,0-25.73c-4.08,3.86-7.12,6.42-9.75,9.35
	c-1.63,1.82-3.71,4.19-3.75,6.35C265.35,339.39,265.49,356.29,265.49,374.55z M218.4,702.02c-40.95,0-81.08,0-121.7,0
	c0,13.15,0,25.93,0,39.49c-9.58,0-18.71,0-27.84,0c0,4.75,0,8.71,0,12.98c172.11,0,343.89,0,515.79,0c0-4.01,0-7.7,0-11.98
	c-8.13,0-15.88,0-24.11,0c0-13.81,0-27.02,0-40.41c-15.45,0-30.38,0-45.78,0c0,14.26,0,28.06,0,41.96c-98.97,0-197.46,0-296.37,0
	C218.4,729.93,218.4,716.28,218.4,702.02z M221.02,741.64c72.47,0,144.4,0,216.5,0c0-13.46,0-26.44,0-39.63
	c-72.3,0-144.28,0-216.5,0C221.02,715.23,221.02,728.08,221.02,741.64z M372.16,324.52c0,25.89,0,51.73,0,78.34
	c-11.77,0-23.1,0-35.07,0c0,29.44,0,58.1,0,87.27c-20.71,0-40.76,0-61.3,0c0.11,2.39,0.19,4.23,0.26,5.89c36.62,0,72.57,0,108.57,0
	c0-45.95,0-91.48,0-137.62c-2.66,1.68-4.73,2.99-7.38,4.66c0-13.65-0.1-26.51,0.07-39.37c0.04-3.17,0.95-6.34,1.59-10.31
	c-6.87-8.59-14.32-17.92-22.14-27.72c-4.39,6.5-8.28,12.25-12.58,18.62c5.01,1.02,9.24,1.88,13.6,2.77
	c0.27,4.92-1.1,10.78,1.23,13.7C361.22,323.55,367.28,323.3,372.16,324.52z M265.39,633.78c43.43,0,86.54,0,129.62,0
	c0-22.57,0-44.74,0-66.84c-43.49,0-86.44,0-129.62,0C265.39,589.4,265.39,611.43,265.39,633.78z M512.08,741.8
	c0-13.66,0-26.8,0-39.71c-24.12,0-47.77,0-71.39,0c0,13.44,0,26.43,0,39.71C464.62,741.8,488.13,741.8,512.08,741.8z M246.85,698.57
	c56.43,0,112.39,0,168.5,0c0-5.6,0-10.73,0-16.36c-56.29,0-112.24,0-168.5,0C246.85,687.67,246.85,692.83,246.85,698.57z
	 M443.26,264.58c-9.94-8.64-19.42-16.87-29.02-25.21c-18.87,15.01-37.22,29.6-55.75,44.33c8.13,10.2,15.75,19.76,23.73,29.78
	C402.68,297.09,422.71,281.04,443.26,264.58z M412.01,538.96c-54.54,0-108.54,0-162.56,0c0,5.59,0,10.74,0,16.16
	c54.29,0,108.3,0,162.56,0C412.01,549.65,412.01,544.49,412.01,538.96z M396.39,499.31c-44.13,0-87.65,0-131.14,0
	c0,5.99,0,11.53,0,17.06c43.91,0,87.44,0,131.14,0C396.39,510.56,396.39,505.17,396.39,499.31z M411.46,678.47
	c-3.61-3.42-6.28-5.37-8.2-7.9c-4.18-5.52-9.45-6.8-16.22-6.74c-37.64,0.32-75.3,0.77-112.92-0.2c-12.19-0.31-16.13,7.49-22.9,14.83
	C304.83,678.47,357.26,678.47,411.46,678.47z M379.65,358.12c17.18-13.34,33.45-25.97,49.84-38.69c-0.65-0.46-0.92-0.76-1.24-0.86
	c-9.82-2.91-14.09-8.96-12.32-17.49c1.57-7.59,8.18-11.39,17.7-10.35c1.46,0.16,3.35,0.09,4.45-0.7
	c5.34-3.82,10.49-7.92,16.12-12.24c-3.26-4.03-6.1-7.54-9.2-11.37c-21.44,17.21-42.46,34.02-63.36,50.98
	c-1.15,0.93-1.89,3.03-1.91,4.6C379.58,333.67,379.65,345.32,379.65,358.12z M351.05,142.53c-13.99-14-27.8-27.81-41.95-41.97
	c0,9.19,0,18.5,0,28.44c-10.46,0-20.18,0-27.49,0c7.77,8.05,16.37,16.96,24.75,25.64c0.15-3.34,0.33-7.44,0.54-12.12
	C322.22,142.53,336.78,142.53,351.05,142.53z M237.3,169.84c3.28,0,5.97,0,8.84,0c0.32-2.63,0.59-4.93,0.87-7.24
	c3.67,0,6.97,0,10.36,0c0.19,3.19,0.36,5.95,0.55,9.14c2.08-0.15,3.73-0.28,5.24-0.39c0-24.15,0-47.76,0-71.25
	c-2.82,0-5.15,0-8.13,0c0,7.87,0,15.39,0,23.42c-5.05,0-9.47-0.26-13.84,0.15c-1.39,0.13-3.72,1.99-3.74,3.1
	C237.21,141.01,237.3,155.26,237.3,169.84z M308.99,208.52c21.3,0,41.77,0,63.18,0c-4.18-4.81-7.42-9.18-11.32-12.84
	c-4.48-4.2-5.92-8.9-5.69-14.96c0.45-11.58,0.13-23.19,0.13-35.04c-15.73,0-30.67,0-45.9,0c-0.16,1.54-0.38,2.71-0.38,3.88
	C308.98,169.04,308.99,188.52,308.99,208.52z M262.45,267.96c0.27-2.58,0.56-4.08,0.56-5.58c0.04-10.03-0.09-20.07,0.12-30.1
	c0.05-2.22,0.54-5.11,1.97-6.52c8.51-8.34,15.71-19.42,30.41-16.28c0.07,0.02,0.21-0.27,0.77-0.99c-4.94-4.58-9.93-9.21-15.05-13.96
	c-9.01,8.3-17.42,16.04-25.82,23.79c-13.32,12.29-13.34,12.29-12.44,30.17c0.08,1.49,0.35,3.48,1.32,4.34
	C249.96,257.81,255.86,262.53,262.45,267.96z M395.26,643.82c-43.6,0-86.59,0-129.71,0c0,3.05,0,5.71,0,8.46
	c43.46,0,86.44,0,129.71,0C395.26,649.34,395.26,646.8,395.26,643.82z M241.55,227.61c12.91-11.91,25.35-23.39,37.82-34.89
	c-5.17-5.23-9.77-9.88-14.59-14.75c-12.32,11.38-24.37,22.51-36.64,33.84C232.63,217.09,236.77,221.97,241.55,227.61z
	 M265.73,420.47c15.51-14.75,30.08-28.61,45.69-43.45c-16.38,0-30.94,0-45.69,0C265.73,391.23,265.73,405.04,265.73,420.47z
	 M385.28,127.99c-0.27-0.47-0.54-0.93-0.8-1.4c-9.62,0-19.24,0-29.75,0c0-9.02,0-17.68,0-27.95c-8.21,7.37-15.1,13.57-22.39,20.11
	c5.67,5.53,10.61,10.85,16.1,15.56c6.55,5.62,11.25,11.75,9.46,20.99c-0.04,0.21,0.45,0.52,1.07,1.17
	C367.75,146.95,376.51,137.47,385.28,127.99z M396.31,519.59c-44.05,0-87.62,0-131.19,0c0,2.35,0,4.3,0,6.55
	c43.81,0,87.38,0,131.19,0C396.31,523.89,396.31,521.94,396.31,519.59z M265.71,315.98c15.22-14.41,29.27-27.72,44.12-41.77
	c-15.71,0-29.84,0-44.12,0C265.71,287.91,265.71,301.11,265.71,315.98z M265.57,255.67c16.2-14.85,31.16-28.56,47.49-43.52
	c-5.83,0-9.83,0.45-13.71-0.09c-11.41-1.59-20.88,1.22-27.84,10.86c-1.84,2.55-5.43,4.74-5.68,7.35
	C265.08,238.13,265.57,246.12,265.57,255.67z M396.4,529.19c-44.03,0-87.55,0-131.51,0c0.1,2.22,0.19,4.09,0.27,5.79
	c44.11,0,87.6,0,131.24,0C396.4,532.89,396.4,531.31,396.4,529.19z M395.33,558.17c-43.69,0-86.68,0-129.88,0c0,1.99,0,3.66,0,5.49
	c43.5,0,86.64,0,129.88,0C395.33,561.68,395.33,560.12,395.33,558.17z M306.53,481.66c1.9-1.34,3.05-1.99,4-2.85
	c6.23-5.68,12.08-11.83,18.7-16.99c5.82-4.53,5.6-9.85,4.62-15.85c-9.51,0-18.61,0-27.32,0
	C306.53,457.86,306.53,469.25,306.53,481.66z M394.82,660.76c2.03-6.03-1.61-5.63-4.9-5.63c-39.67,0-79.34-0.02-119.01,0.07
	c-2.22,0-6.07-1.41-5.52,3.01c0.13,1.06,3.5,2.44,5.38,2.44c30.61,0.15,61.22,0.11,91.82,0.11
	C373.24,660.76,383.9,660.76,394.82,660.76z M330.25,636.6c-19.9,0-39.8-0.05-59.69,0.09c-1.8,0.01-3.58,1.33-5.37,2.05
	c1.74,0.76,3.48,2.18,5.22,2.19c40,0.13,80,0.13,119.99-0.01c1.68-0.01,3.35-1.52,5.02-2.33c-1.62-0.66-3.25-1.9-4.87-1.91
	C370.45,636.55,350.35,636.6,330.25,636.6z M412.91,237.38c-1.08-16.05-10.74-25.2-25.34-24.71c0,8.27,0,16.54,0,24.71
	C396.21,237.38,404.37,237.38,412.91,237.38z M237.84,172.9c0,8.94,0,17.15,0,26.44c9.17-8.49,17.47-16.17,26.51-24.54
	c-3.72-0.43-6.23-0.72-8.91-1.03c-0.17-3.01-0.32-5.76-0.51-9.06c-2.15,0.11-3.96,0.21-5.65,0.29c-0.29,2.89-0.51,5.03-0.75,7.36
	C244.81,172.56,241.45,172.72,237.84,172.9z M334.72,460.1c-9.99,9.23-19.25,17.78-29.3,27.07c10.8,0,19.95,0,29.3,0
	C334.72,478.35,334.72,469.95,334.72,460.1z M418.13,303.97c-0.22,6.49,5.05,12.11,11.41,12.18c5.93,0.06,11.51-5.35,11.71-11.36
	c0.22-6.51-4.99-11.98-11.48-12.07C423.51,292.64,418.35,297.62,418.13,303.97z M246.59,63.74c0,6.32,0,12.03,0,17.83
	c6.96,0,13.47,0,20.07,0c0-6.16,0-11.88,0-17.83C259.87,63.74,253.5,63.74,246.59,63.74z M243.25,81.66c0-6.26,0-11.96,0-17.81
	c-6.78,0-13.09,0-19.73,0c0,6.06,0,11.76,0,17.81C230.18,81.66,236.49,81.66,243.25,81.66z M227.75,95.37c0,5.8,0,10.93,0,16.32
	c6.68,0,12.83,0,19.11,0c0-5.61,0-10.89,0-16.32C240.23,95.37,234.08,95.37,227.75,95.37z M303.43,487.3c0-8.01,0-15.43,0-24.09
	c-8.89,8.35-16.77,15.75-25.65,24.09C287.3,487.3,295.19,487.3,303.43,487.3z M249.34,92.95c0,7.28,0,14.21,0,21.7
	c-4.16,0-7.91,0-12.01,0c0.11,2.3,0.2,4,0.3,6.05c5.11,0,9.82,0,14.76,0c0-11.84,0-23.38,0-34.87c-4.94,0-9.47,0-14.01,0
	c0,2.35,0,4.3,0,6.59C242.14,92.6,245.67,92.77,249.34,92.95z M276.14,465.34c0,6.54,0,12.76,0,19.93
	c7.25-6.82,13.8-12.99,21.17-19.93C289.42,465.34,282.91,465.34,276.14,465.34z M281.93,328.27c6.8-7.24,12.8-13.64,18.69-19.92
	c-5.94,0-12.22,0-18.69,0C281.93,314.82,281.93,320.9,281.93,328.27z"/>
<path d="M268.55,57.07c-16.84,0-32.87,0-48.9,0c-0.22-0.44-0.44-0.87-0.66-1.31c16.24-14.64,32.49-29.28,49.56-44.67
	C268.55,27.18,268.55,42.23,268.55,57.07z M266.44,16.48c-14.32,12.88-27.61,24.84-40.9,36.79c0.24,0.46,0.48,0.92,0.72,1.38
	c13.33,0,26.66,0,40.18,0C266.44,42.35,266.44,30.33,266.44,16.48z"/>
</svg>
